<svg xmlns="http://www.w3.org/2000/svg" height="155.47005383792478" width="139.99999999999972" viewBox="-20.0 -48.9 140.0 155.5"><path d="M0 0  L0.41152 0.00000  L0.61728 -0.35639  L0.82305 0.00000  L1.23457 0.00000  L1.44033 -0.35639  L1.23457 -0.71278  L1.64609 -0.71278  L1.85185 -1.06917  L2.05761 -0.71278  L2.46914 -0.71278  L2.26337 -0.35639  L2.46914 0.00000  L2.88066 0.00000  L3.08642 -0.35639  L3.29218 0.00000  L3.70370 0.00000  L3.90947 -0.35639  L3.70370 -0.71278  L4.11523 -0.71278  L4.32099 -1.06917  L4.11523 -1.42556  L3.70370 -1.42556  L3.90947 -1.78195  L3.70370 -2.13833  L4.11523 -2.13833  L4.32099 -2.49472  L4.52675 -2.13833  L4.93827 -2.13833  L5.14403 -2.49472  L4.93827 -2.85111  L5.34979 -2.85111  L5.55556 -3.20750  L5.76132 -2.85111  L6.17284 -2.85111  L5.96708 -2.49472  L6.17284 -2.13833  L6.58436 -2.13833  L6.79012 -2.49472  L6.99588 -2.13833  L7.40741 -2.13833  L7.20165 -1.78195  L7.40741 -1.42556  L6.99588 -1.42556  L6.79012 -1.06917  L6.99588 -0.71278  L7.40741 -0.71278  L7.20165 -0.35639  L7.40741 0.00000  L7.81893 0.00000  L8.02469 -0.35639  L8.23045 0.00000  L8.64198 0.00000  L8.84774 -0.35639  L8.64198 -0.71278  L9.05350 -0.71278  L9.25926 -1.06917  L9.46502 -0.71278  L9.87654 -0.71278  L9.67078 -0.35639  L9.87654 0.00000  L10.28807 0.00000  L10.49383 -0.35639  L10.69959 0.00000  L11.11111 0.00000  L11.31687 -0.35639  L11.11111 -0.71278  L11.52263 -0.71278  L11.72840 -1.06917  L11.52263 -1.42556  L11.11111 -1.42556  L11.31687 -1.78195  L11.11111 -2.13833  L11.52263 -2.13833  L11.72840 -2.49472  L11.93416 -2.13833  L12.34568 -2.13833  L12.55144 -2.49472  L12.34568 -2.85111  L12.75720 -2.85111  L12.96296 -3.20750  L12.75720 -3.56389  L12.34568 -3.56389  L12.55144 -3.92028  L12.34568 -4.27667  L11.93416 -4.27667  L11.72840 -3.92028  L11.52263 -4.27667  L11.11111 -4.27667  L11.31687 -4.63306  L11.11111 -4.98945  L11.52263 -4.98945  L11.72840 -5.34584  L11.52263 -5.70222  L11.11111 -5.70222  L11.31687 -6.05861  L11.11111 -6.41500  L11.52263 -6.41500  L11.72840 -6.77139  L11.93416 -6.41500  L12.34568 -6.41500  L12.55144 -6.77139  L12.34568 -7.12778  L12.75720 -7.12778  L12.96296 -7.48417  L13.16872 -7.12778  L13.58025 -7.12778  L13.37449 -6.77139  L13.58025 -6.41500  L13.99177 -6.41500  L14.19753 -6.77139  L14.40329 -6.41500  L14.81481 -6.41500  L15.02058 -6.77139  L14.81481 -7.12778  L15.22634 -7.12778  L15.43210 -7.48417  L15.22634 -7.84056  L14.81481 -7.84056  L15.02058 -8.19695  L14.81481 -8.55334  L15.22634 -8.55334  L15.43210 -8.90973  L15.63786 -8.55334  L16.04938 -8.55334  L16.25514 -8.90973  L16.04938 -9.26612  L16.46091 -9.26612  L16.66667 -9.62250  L16.87243 -9.26612  L17.28395 -9.26612  L17.07819 -8.90973  L17.28395 -8.55334  L17.69547 -8.55334  L17.90123 -8.90973  L18.10700 -8.55334  L18.51852 -8.55334  L18.31276 -8.19695  L18.51852 -7.84056  L18.10700 -7.84056  L17.90123 -7.48417  L18.10700 -7.12778  L18.51852 -7.12778  L18.31276 -6.77139  L18.51852 -6.41500  L18.93004 -6.41500  L19.13580 -6.77139  L19.34156 -6.41500  L19.75309 -6.41500  L19.95885 -6.77139  L19.75309 -7.12778  L20.16461 -7.12778  L20.37037 -7.48417  L20.57613 -7.12778  L20.98765 -7.12778  L20.78189 -6.77139  L20.98765 -6.41500  L21.39918 -6.41500  L21.60494 -6.77139  L21.81070 -6.41500  L22.22222 -6.41500  L22.01646 -6.05861  L22.22222 -5.70222  L21.81070 -5.70222  L21.60494 -5.34584  L21.81070 -4.98945  L22.22222 -4.98945  L22.01646 -4.63306  L22.22222 -4.27667  L21.81070 -4.27667  L21.60494 -3.92028  L21.39918 -4.27667  L20.98765 -4.27667  L20.78189 -3.92028  L20.98765 -3.56389  L20.57613 -3.56389  L20.37037 -3.20750  L20.57613 -2.85111  L20.98765 -2.85111  L20.78189 -2.49472  L20.98765 -2.13833  L21.39918 -2.13833  L21.60494 -2.49472  L21.81070 -2.13833  L22.22222 -2.13833  L22.01646 -1.78195  L22.22222 -1.42556  L21.81070 -1.42556  L21.60494 -1.06917  L21.81070 -0.71278  L22.22222 -0.71278  L22.01646 -0.35639  L22.22222 0.00000  L22.63374 0.00000  L22.83951 -0.35639  L23.04527 0.00000  L23.45679 0.00000  L23.66255 -0.35639  L23.45679 -0.71278  L23.86831 -0.71278  L24.07407 -1.06917  L24.27984 -0.71278  L24.69136 -0.71278  L24.48560 -0.35639  L24.69136 0.00000  L25.10288 0.00000  L25.30864 -0.35639  L25.51440 0.00000  L25.92593 0.00000  L26.13169 -0.35639  L25.92593 -0.71278  L26.33745 -0.71278  L26.54321 -1.06917  L26.33745 -1.42556  L25.92593 -1.42556  L26.13169 -1.78195  L25.92593 -2.13833  L26.33745 -2.13833  L26.54321 -2.49472  L26.74897 -2.13833  L27.16049 -2.13833  L27.36626 -2.49472  L27.16049 -2.85111  L27.57202 -2.85111  L27.77778 -3.20750  L27.98354 -2.85111  L28.39506 -2.85111  L28.18930 -2.49472  L28.39506 -2.13833  L28.80658 -2.13833  L29.01235 -2.49472  L29.21811 -2.13833  L29.62963 -2.13833  L29.42387 -1.78195  L29.62963 -1.42556  L29.21811 -1.42556  L29.01235 -1.06917  L29.21811 -0.71278  L29.62963 -0.71278  L29.42387 -0.35639  L29.62963 0.00000  L30.04115 0.00000  L30.24691 -0.35639  L30.45267 0.00000  L30.86420 0.00000  L31.06996 -0.35639  L30.86420 -0.71278  L31.27572 -0.71278  L31.48148 -1.06917  L31.68724 -0.71278  L32.09877 -0.71278  L31.89300 -0.35639  L32.09877 0.00000  L32.51029 0.00000  L32.71605 -0.35639  L32.92181 0.00000  L33.33333 0.00000  L33.53909 -0.35639  L33.33333 -0.71278  L33.74486 -0.71278  L33.95062 -1.06917  L33.74486 -1.42556  L33.33333 -1.42556  L33.53909 -1.78195  L33.33333 -2.13833  L33.74486 -2.13833  L33.95062 -2.49472  L34.15638 -2.13833  L34.56790 -2.13833  L34.77366 -2.49472  L34.56790 -2.85111  L34.97942 -2.85111  L35.18519 -3.20750  L34.97942 -3.56389  L34.56790 -3.56389  L34.77366 -3.92028  L34.56790 -4.27667  L34.15638 -4.27667  L33.95062 -3.92028  L33.74486 -4.27667  L33.33333 -4.27667  L33.53909 -4.63306  L33.33333 -4.98945  L33.74486 -4.98945  L33.95062 -5.34584  L33.74486 -5.70222  L33.33333 -5.70222  L33.53909 -6.05861  L33.33333 -6.41500  L33.74486 -6.41500  L33.95062 -6.77139  L34.15638 -6.41500  L34.56790 -6.41500  L34.77366 -6.77139  L34.56790 -7.12778  L34.97942 -7.12778  L35.18519 -7.48417  L35.39095 -7.12778  L35.80247 -7.12778  L35.59671 -6.77139  L35.80247 -6.41500  L36.21399 -6.41500  L36.41975 -6.77139  L36.62551 -6.41500  L37.03704 -6.41500  L37.24280 -6.77139  L37.03704 -7.12778  L37.44856 -7.12778  L37.65432 -7.48417  L37.44856 -7.84056  L37.03704 -7.84056  L37.24280 -8.19695  L37.03704 -8.55334  L37.44856 -8.55334  L37.65432 -8.90973  L37.86008 -8.55334  L38.27160 -8.55334  L38.47737 -8.90973  L38.27160 -9.26612  L38.68313 -9.26612  L38.88889 -9.62250  L38.68313 -9.97889  L38.27160 -9.97889  L38.47737 -10.33528  L38.27160 -10.69167  L37.86008 -10.69167  L37.65432 -10.33528  L37.44856 -10.69167  L37.03704 -10.69167  L37.24280 -11.04806  L37.03704 -11.40445  L37.44856 -11.40445  L37.65432 -11.76084  L37.44856 -12.11723  L37.03704 -12.11723  L37.24280 -12.47362  L37.03704 -12.83001  L36.62551 -12.83001  L36.41975 -12.47362  L36.21399 -12.83001  L35.80247 -12.83001  L35.59671 -12.47362  L35.80247 -12.11723  L35.39095 -12.11723  L35.18519 -11.76084  L34.97942 -12.11723  L34.56790 -12.11723  L34.77366 -12.47362  L34.56790 -12.83001  L34.15638 -12.83001  L33.95062 -12.47362  L33.74486 -12.83001  L33.33333 -12.83001  L33.53909 -13.18640  L33.33333 -13.54278  L33.74486 -13.54278  L33.95062 -13.89917  L33.74486 -14.25556  L33.33333 -14.25556  L33.53909 -14.61195  L33.33333 -14.96834  L33.74486 -14.96834  L33.95062 -15.32473  L34.15638 -14.96834  L34.56790 -14.96834  L34.77366 -15.32473  L34.56790 -15.68112  L34.97942 -15.68112  L35.18519 -16.03751  L34.97942 -16.39390  L34.56790 -16.39390  L34.77366 -16.75029  L34.56790 -17.10667  L34.15638 -17.10667  L33.95062 -16.75029  L33.74486 -17.10667  L33.33333 -17.10667  L33.53909 -17.46306  L33.33333 -17.81945  L33.74486 -17.81945  L33.95062 -18.17584  L33.74486 -18.53223  L33.33333 -18.53223  L33.53909 -18.88862  L33.33333 -19.24501  L33.74486 -19.24501  L33.95062 -19.60140  L34.15638 -19.24501  L34.56790 -19.24501  L34.77366 -19.60140  L34.56790 -19.95779  L34.97942 -19.95779  L35.18519 -20.31418  L35.39095 -19.95779  L35.80247 -19.95779  L35.59671 -19.60140  L35.80247 -19.24501  L36.21399 -19.24501  L36.41975 -19.60140  L36.62551 -19.24501  L37.03704 -19.24501  L37.24280 -19.60140  L37.03704 -19.95779  L37.44856 -19.95779  L37.65432 -20.31418  L37.44856 -20.67057  L37.03704 -20.67057  L37.24280 -21.02695  L37.03704 -21.38334  L37.44856 -21.38334  L37.65432 -21.73973  L37.86008 -21.38334  L38.27160 -21.38334  L38.47737 -21.73973  L38.27160 -22.09612  L38.68313 -22.09612  L38.88889 -22.45251  L39.09465 -22.09612  L39.50617 -22.09612  L39.30041 -21.73973  L39.50617 -21.38334  L39.91770 -21.38334  L40.12346 -21.73973  L40.32922 -21.38334  L40.74074 -21.38334  L40.53498 -21.02695  L40.74074 -20.67057  L40.32922 -20.67057  L40.12346 -20.31418  L40.32922 -19.95779  L40.74074 -19.95779  L40.53498 -19.60140  L40.74074 -19.24501  L41.15226 -19.24501  L41.35802 -19.60140  L41.56379 -19.24501  L41.97531 -19.24501  L42.18107 -19.60140  L41.97531 -19.95779  L42.38683 -19.95779  L42.59259 -20.31418  L42.79835 -19.95779  L43.20988 -19.95779  L43.00412 -19.60140  L43.20988 -19.24501  L43.62140 -19.24501  L43.82716 -19.60140  L44.03292 -19.24501  L44.44444 -19.24501  L44.65021 -19.60140  L44.44444 -19.95779  L44.85597 -19.95779  L45.06173 -20.31418  L44.85597 -20.67057  L44.44444 -20.67057  L44.65021 -21.02695  L44.44444 -21.38334  L44.85597 -21.38334  L45.06173 -21.73973  L45.26749 -21.38334  L45.67901 -21.38334  L45.88477 -21.73973  L45.67901 -22.09612  L46.09053 -22.09612  L46.29630 -22.45251  L46.09053 -22.80890  L45.67901 -22.80890  L45.88477 -23.16529  L45.67901 -23.52168  L45.26749 -23.52168  L45.06173 -23.16529  L44.85597 -23.52168  L44.44444 -23.52168  L44.65021 -23.87807  L44.44444 -24.23446  L44.85597 -24.23446  L45.06173 -24.59084  L44.85597 -24.94723  L44.44444 -24.94723  L44.65021 -25.30362  L44.44444 -25.66001  L44.85597 -25.66001  L45.06173 -26.01640  L45.26749 -25.66001  L45.67901 -25.66001  L45.88477 -26.01640  L45.67901 -26.37279  L46.09053 -26.37279  L46.29630 -26.72918  L46.50206 -26.37279  L46.91358 -26.37279  L46.70782 -26.01640  L46.91358 -25.66001  L47.32510 -25.66001  L47.53086 -26.01640  L47.73663 -25.66001  L48.14815 -25.66001  L48.35391 -26.01640  L48.14815 -26.37279  L48.55967 -26.37279  L48.76543 -26.72918  L48.55967 -27.08557  L48.14815 -27.08557  L48.35391 -27.44196  L48.14815 -27.79835  L48.55967 -27.79835  L48.76543 -28.15474  L48.97119 -27.79835  L49.38272 -27.79835  L49.58848 -28.15474  L49.38272 -28.51112  L49.79424 -28.51112  L50.00000 -28.86751  L50.20576 -28.51112  L50.61728 -28.51112  L50.41152 -28.15474  L50.61728 -27.79835  L51.02881 -27.79835  L51.23457 -28.15474  L51.44033 -27.79835  L51.85185 -27.79835  L51.64609 -27.44196  L51.85185 -27.08557  L51.44033 -27.08557  L51.23457 -26.72918  L51.44033 -26.37279  L51.85185 -26.37279  L51.64609 -26.01640  L51.85185 -25.66001  L52.26337 -25.66001  L52.46914 -26.01640  L52.67490 -25.66001  L53.08642 -25.66001  L53.29218 -26.01640  L53.08642 -26.37279  L53.49794 -26.37279  L53.70370 -26.72918  L53.90947 -26.37279  L54.32099 -26.37279  L54.11523 -26.01640  L54.32099 -25.66001  L54.73251 -25.66001  L54.93827 -26.01640  L55.14403 -25.66001  L55.55556 -25.66001  L55.34979 -25.30362  L55.55556 -24.94723  L55.14403 -24.94723  L54.93827 -24.59084  L55.14403 -24.23446  L55.55556 -24.23446  L55.34979 -23.87807  L55.55556 -23.52168  L55.14403 -23.52168  L54.93827 -23.16529  L54.73251 -23.52168  L54.32099 -23.52168  L54.11523 -23.16529  L54.32099 -22.80890  L53.90947 -22.80890  L53.70370 -22.45251  L53.90947 -22.09612  L54.32099 -22.09612  L54.11523 -21.73973  L54.32099 -21.38334  L54.73251 -21.38334  L54.93827 -21.73973  L55.14403 -21.38334  L55.55556 -21.38334  L55.34979 -21.02695  L55.55556 -20.67057  L55.14403 -20.67057  L54.93827 -20.31418  L55.14403 -19.95779  L55.55556 -19.95779  L55.34979 -19.60140  L55.55556 -19.24501  L55.96708 -19.24501  L56.17284 -19.60140  L56.37860 -19.24501  L56.79012 -19.24501  L56.99588 -19.60140  L56.79012 -19.95779  L57.20165 -19.95779  L57.40741 -20.31418  L57.61317 -19.95779  L58.02469 -19.95779  L57.81893 -19.60140  L58.02469 -19.24501  L58.43621 -19.24501  L58.64198 -19.60140  L58.84774 -19.24501  L59.25926 -19.24501  L59.46502 -19.60140  L59.25926 -19.95779  L59.67078 -19.95779  L59.87654 -20.31418  L59.67078 -20.67057  L59.25926 -20.67057  L59.46502 -21.02695  L59.25926 -21.38334  L59.67078 -21.38334  L59.87654 -21.73973  L60.08230 -21.38334  L60.49383 -21.38334  L60.69959 -21.73973  L60.49383 -22.09612  L60.90535 -22.09612  L61.11111 -22.45251  L61.31687 -22.09612  L61.72840 -22.09612  L61.52263 -21.73973  L61.72840 -21.38334  L62.13992 -21.38334  L62.34568 -21.73973  L62.55144 -21.38334  L62.96296 -21.38334  L62.75720 -21.02695  L62.96296 -20.67057  L62.55144 -20.67057  L62.34568 -20.31418  L62.55144 -19.95779  L62.96296 -19.95779  L62.75720 -19.60140  L62.96296 -19.24501  L63.37449 -19.24501  L63.58025 -19.60140  L63.78601 -19.24501  L64.19753 -19.24501  L64.40329 -19.60140  L64.19753 -19.95779  L64.60905 -19.95779  L64.81481 -20.31418  L65.02058 -19.95779  L65.43210 -19.95779  L65.22634 -19.60140  L65.43210 -19.24501  L65.84362 -19.24501  L66.04938 -19.60140  L66.25514 -19.24501  L66.66667 -19.24501  L66.46091 -18.88862  L66.66667 -18.53223  L66.25514 -18.53223  L66.04938 -18.17584  L66.25514 -17.81945  L66.66667 -17.81945  L66.46091 -17.46306  L66.66667 -17.10667  L66.25514 -17.10667  L66.04938 -16.75029  L65.84362 -17.10667  L65.43210 -17.10667  L65.22634 -16.75029  L65.43210 -16.39390  L65.02058 -16.39390  L64.81481 -16.03751  L65.02058 -15.68112  L65.43210 -15.68112  L65.22634 -15.32473  L65.43210 -14.96834  L65.84362 -14.96834  L66.04938 -15.32473  L66.25514 -14.96834  L66.66667 -14.96834  L66.46091 -14.61195  L66.66667 -14.25556  L66.25514 -14.25556  L66.04938 -13.89917  L66.25514 -13.54278  L66.66667 -13.54278  L66.46091 -13.18640  L66.66667 -12.83001  L66.25514 -12.83001  L66.04938 -12.47362  L65.84362 -12.83001  L65.43210 -12.83001  L65.22634 -12.47362  L65.43210 -12.11723  L65.02058 -12.11723  L64.81481 -11.76084  L64.60905 -12.11723  L64.19753 -12.11723  L64.40329 -12.47362  L64.19753 -12.83001  L63.78601 -12.83001  L63.58025 -12.47362  L63.37449 -12.83001  L62.96296 -12.83001  L62.75720 -12.47362  L62.96296 -12.11723  L62.55144 -12.11723  L62.34568 -11.76084  L62.55144 -11.40445  L62.96296 -11.40445  L62.75720 -11.04806  L62.96296 -10.69167  L62.55144 -10.69167  L62.34568 -10.33528  L62.13992 -10.69167  L61.72840 -10.69167  L61.52263 -10.33528  L61.72840 -9.97889  L61.31687 -9.97889  L61.11111 -9.62250  L61.31687 -9.26612  L61.72840 -9.26612  L61.52263 -8.90973  L61.72840 -8.55334  L62.13992 -8.55334  L62.34568 -8.90973  L62.55144 -8.55334  L62.96296 -8.55334  L62.75720 -8.19695  L62.96296 -7.84056  L62.55144 -7.84056  L62.34568 -7.48417  L62.55144 -7.12778  L62.96296 -7.12778  L62.75720 -6.77139  L62.96296 -6.41500  L63.37449 -6.41500  L63.58025 -6.77139  L63.78601 -6.41500  L64.19753 -6.41500  L64.40329 -6.77139  L64.19753 -7.12778  L64.60905 -7.12778  L64.81481 -7.48417  L65.02058 -7.12778  L65.43210 -7.12778  L65.22634 -6.77139  L65.43210 -6.41500  L65.84362 -6.41500  L66.04938 -6.77139  L66.25514 -6.41500  L66.66667 -6.41500  L66.46091 -6.05861  L66.66667 -5.70222  L66.25514 -5.70222  L66.04938 -5.34584  L66.25514 -4.98945  L66.66667 -4.98945  L66.46091 -4.63306  L66.66667 -4.27667  L66.25514 -4.27667  L66.04938 -3.92028  L65.84362 -4.27667  L65.43210 -4.27667  L65.22634 -3.92028  L65.43210 -3.56389  L65.02058 -3.56389  L64.81481 -3.20750  L65.02058 -2.85111  L65.43210 -2.85111  L65.22634 -2.49472  L65.43210 -2.13833  L65.84362 -2.13833  L66.04938 -2.49472  L66.25514 -2.13833  L66.66667 -2.13833  L66.46091 -1.78195  L66.66667 -1.42556  L66.25514 -1.42556  L66.04938 -1.06917  L66.25514 -0.71278  L66.66667 -0.71278  L66.46091 -0.35639  L66.66667 0.00000  L67.07819 0.00000  L67.28395 -0.35639  L67.48971 0.00000  L67.90123 0.00000  L68.10700 -0.35639  L67.90123 -0.71278  L68.31276 -0.71278  L68.51852 -1.06917  L68.72428 -0.71278  L69.13580 -0.71278  L68.93004 -0.35639  L69.13580 0.00000  L69.54733 0.00000  L69.75309 -0.35639  L69.95885 0.00000  L70.37037 0.00000  L70.57613 -0.35639  L70.37037 -0.71278  L70.78189 -0.71278  L70.98765 -1.06917  L70.78189 -1.42556  L70.37037 -1.42556  L70.57613 -1.78195  L70.37037 -2.13833  L70.78189 -2.13833  L70.98765 -2.49472  L71.19342 -2.13833  L71.60494 -2.13833  L71.81070 -2.49472  L71.60494 -2.85111  L72.01646 -2.85111  L72.22222 -3.20750  L72.42798 -2.85111  L72.83951 -2.85111  L72.63374 -2.49472  L72.83951 -2.13833  L73.25103 -2.13833  L73.45679 -2.49472  L73.66255 -2.13833  L74.07407 -2.13833  L73.86831 -1.78195  L74.07407 -1.42556  L73.66255 -1.42556  L73.45679 -1.06917  L73.66255 -0.71278  L74.07407 -0.71278  L73.86831 -0.35639  L74.07407 0.00000  L74.48560 0.00000  L74.69136 -0.35639  L74.89712 0.00000  L75.30864 0.00000  L75.51440 -0.35639  L75.30864 -0.71278  L75.72016 -0.71278  L75.92593 -1.06917  L76.13169 -0.71278  L76.54321 -0.71278  L76.33745 -0.35639  L76.54321 0.00000  L76.95473 0.00000  L77.16049 -0.35639  L77.36626 0.00000  L77.77778 0.00000  L77.98354 -0.35639  L77.77778 -0.71278  L78.18930 -0.71278  L78.39506 -1.06917  L78.18930 -1.42556  L77.77778 -1.42556  L77.98354 -1.78195  L77.77778 -2.13833  L78.18930 -2.13833  L78.39506 -2.49472  L78.60082 -2.13833  L79.01235 -2.13833  L79.21811 -2.49472  L79.01235 -2.85111  L79.42387 -2.85111  L79.62963 -3.20750  L79.42387 -3.56389  L79.01235 -3.56389  L79.21811 -3.92028  L79.01235 -4.27667  L78.60082 -4.27667  L78.39506 -3.92028  L78.18930 -4.27667  L77.77778 -4.27667  L77.98354 -4.63306  L77.77778 -4.98945  L78.18930 -4.98945  L78.39506 -5.34584  L78.18930 -5.70222  L77.77778 -5.70222  L77.98354 -6.05861  L77.77778 -6.41500  L78.18930 -6.41500  L78.39506 -6.77139  L78.60082 -6.41500  L79.01235 -6.41500  L79.21811 -6.77139  L79.01235 -7.12778  L79.42387 -7.12778  L79.62963 -7.48417  L79.83539 -7.12778  L80.24691 -7.12778  L80.04115 -6.77139  L80.24691 -6.41500  L80.65844 -6.41500  L80.86420 -6.77139  L81.06996 -6.41500  L81.48148 -6.41500  L81.68724 -6.77139  L81.48148 -7.12778  L81.89300 -7.12778  L82.09877 -7.48417  L81.89300 -7.84056  L81.48148 -7.84056  L81.68724 -8.19695  L81.48148 -8.55334  L81.89300 -8.55334  L82.09877 -8.90973  L82.30453 -8.55334  L82.71605 -8.55334  L82.92181 -8.90973  L82.71605 -9.26612  L83.12757 -9.26612  L83.33333 -9.62250  L83.53909 -9.26612  L83.95062 -9.26612  L83.74486 -8.90973  L83.95062 -8.55334  L84.36214 -8.55334  L84.56790 -8.90973  L84.77366 -8.55334  L85.18519 -8.55334  L84.97942 -8.19695  L85.18519 -7.84056  L84.77366 -7.84056  L84.56790 -7.48417  L84.77366 -7.12778  L85.18519 -7.12778  L84.97942 -6.77139  L85.18519 -6.41500  L85.59671 -6.41500  L85.80247 -6.77139  L86.00823 -6.41500  L86.41975 -6.41500  L86.62551 -6.77139  L86.41975 -7.12778  L86.83128 -7.12778  L87.03704 -7.48417  L87.24280 -7.12778  L87.65432 -7.12778  L87.44856 -6.77139  L87.65432 -6.41500  L88.06584 -6.41500  L88.27160 -6.77139  L88.47737 -6.41500  L88.88889 -6.41500  L88.68313 -6.05861  L88.88889 -5.70222  L88.47737 -5.70222  L88.27160 -5.34584  L88.47737 -4.98945  L88.88889 -4.98945  L88.68313 -4.63306  L88.88889 -4.27667  L88.47737 -4.27667  L88.27160 -3.92028  L88.06584 -4.27667  L87.65432 -4.27667  L87.44856 -3.92028  L87.65432 -3.56389  L87.24280 -3.56389  L87.03704 -3.20750  L87.24280 -2.85111  L87.65432 -2.85111  L87.44856 -2.49472  L87.65432 -2.13833  L88.06584 -2.13833  L88.27160 -2.49472  L88.47737 -2.13833  L88.88889 -2.13833  L88.68313 -1.78195  L88.88889 -1.42556  L88.47737 -1.42556  L88.27160 -1.06917  L88.47737 -0.71278  L88.88889 -0.71278  L88.68313 -0.35639  L88.88889 0.00000  L89.30041 0.00000  L89.50617 -0.35639  L89.71193 0.00000  L90.12346 0.00000  L90.32922 -0.35639  L90.12346 -0.71278  L90.53498 -0.71278  L90.74074 -1.06917  L90.94650 -0.71278  L91.35802 -0.71278  L91.15226 -0.35639  L91.35802 0.00000  L91.76955 0.00000  L91.97531 -0.35639  L92.18107 0.00000  L92.59259 0.00000  L92.79835 -0.35639  L92.59259 -0.71278  L93.00412 -0.71278  L93.20988 -1.06917  L93.00412 -1.42556  L92.59259 -1.42556  L92.79835 -1.78195  L92.59259 -2.13833  L93.00412 -2.13833  L93.20988 -2.49472  L93.41564 -2.13833  L93.82716 -2.13833  L94.03292 -2.49472  L93.82716 -2.85111  L94.23868 -2.85111  L94.44444 -3.20750  L94.65021 -2.85111  L95.06173 -2.85111  L94.85597 -2.49472  L95.06173 -2.13833  L95.47325 -2.13833  L95.67901 -2.49472  L95.88477 -2.13833  L96.29630 -2.13833  L96.09053 -1.78195  L96.29630 -1.42556  L95.88477 -1.42556  L95.67901 -1.06917  L95.88477 -0.71278  L96.29630 -0.71278  L96.09053 -0.35639  L96.29630 0.00000  L96.70782 0.00000  L96.91358 -0.35639  L97.11934 0.00000  L97.53086 0.00000  L97.73663 -0.35639  L97.53086 -0.71278  L97.94239 -0.71278  L98.14815 -1.06917  L98.35391 -0.71278  L98.76543 -0.71278  L98.55967 -0.35639  L98.76543 0.00000  L99.17695 0.00000  L99.38272 -0.35639  L99.58848 0.00000  L100.00000 0.00000  L99.79424 0.35639  L100.00000 0.71278  L99.58848 0.71278  L99.38272 1.06917  L99.58848 1.42556  L100.00000 1.42556  L99.79424 1.78195  L100.00000 2.13833  L99.58848 2.13833  L99.38272 2.49472  L99.17695 2.13833  L98.76543 2.13833  L98.55967 2.49472  L98.76543 2.85111  L98.35391 2.85111  L98.14815 3.20750  L98.35391 3.56389  L98.76543 3.56389  L98.55967 3.92028  L98.76543 4.27667  L99.17695 4.27667  L99.38272 3.92028  L99.58848 4.27667  L100.00000 4.27667  L99.79424 4.63306  L100.00000 4.98945  L99.58848 4.98945  L99.38272 5.34584  L99.58848 5.70222  L100.00000 5.70222  L99.79424 6.05861  L100.00000 6.41500  L99.58848 6.41500  L99.38272 6.77139  L99.17695 6.41500  L98.76543 6.41500  L98.55967 6.77139  L98.76543 7.12778  L98.35391 7.12778  L98.14815 7.48417  L97.94239 7.12778  L97.53086 7.12778  L97.73663 6.77139  L97.53086 6.41500  L97.11934 6.41500  L96.91358 6.77139  L96.70782 6.41500  L96.29630 6.41500  L96.09053 6.77139  L96.29630 7.12778  L95.88477 7.12778  L95.67901 7.48417  L95.88477 7.84056  L96.29630 7.84056  L96.09053 8.19695  L96.29630 8.55334  L95.88477 8.55334  L95.67901 8.90973  L95.47325 8.55334  L95.06173 8.55334  L94.85597 8.90973  L95.06173 9.26612  L94.65021 9.26612  L94.44444 9.62250  L94.65021 9.97889  L95.06173 9.97889  L94.85597 10.33528  L95.06173 10.69167  L95.47325 10.69167  L95.67901 10.33528  L95.88477 10.69167  L96.29630 10.69167  L96.09053 11.04806  L96.29630 11.40445  L95.88477 11.40445  L95.67901 11.76084  L95.88477 12.11723  L96.29630 12.11723  L96.09053 12.47362  L96.29630 12.83001  L96.70782 12.83001  L96.91358 12.47362  L97.11934 12.83001  L97.53086 12.83001  L97.73663 12.47362  L97.53086 12.11723  L97.94239 12.11723  L98.14815 11.76084  L98.35391 12.11723  L98.76543 12.11723  L98.55967 12.47362  L98.76543 12.83001  L99.17695 12.83001  L99.38272 12.47362  L99.58848 12.83001  L100.00000 12.83001  L99.79424 13.18640  L100.00000 13.54278  L99.58848 13.54278  L99.38272 13.89917  L99.58848 14.25556  L100.00000 14.25556  L99.79424 14.61195  L100.00000 14.96834  L99.58848 14.96834  L99.38272 15.32473  L99.17695 14.96834  L98.76543 14.96834  L98.55967 15.32473  L98.76543 15.68112  L98.35391 15.68112  L98.14815 16.03751  L98.35391 16.39390  L98.76543 16.39390  L98.55967 16.75029  L98.76543 17.10667  L99.17695 17.10667  L99.38272 16.75029  L99.58848 17.10667  L100.00000 17.10667  L99.79424 17.46306  L100.00000 17.81945  L99.58848 17.81945  L99.38272 18.17584  L99.58848 18.53223  L100.00000 18.53223  L99.79424 18.88862  L100.00000 19.24501  L99.58848 19.24501  L99.38272 19.60140  L99.17695 19.24501  L98.76543 19.24501  L98.55967 19.60140  L98.76543 19.95779  L98.35391 19.95779  L98.14815 20.31418  L97.94239 19.95779  L97.53086 19.95779  L97.73663 19.60140  L97.53086 19.24501  L97.11934 19.24501  L96.91358 19.60140  L96.70782 19.24501  L96.29630 19.24501  L96.09053 19.60140  L96.29630 19.95779  L95.88477 19.95779  L95.67901 20.31418  L95.88477 20.67057  L96.29630 20.67057  L96.09053 21.02695  L96.29630 21.38334  L95.88477 21.38334  L95.67901 21.73973  L95.47325 21.38334  L95.06173 21.38334  L94.85597 21.73973  L95.06173 22.09612  L94.65021 22.09612  L94.44444 22.45251  L94.23868 22.09612  L93.82716 22.09612  L94.03292 21.73973  L93.82716 21.38334  L93.41564 21.38334  L93.20988 21.73973  L93.00412 21.38334  L92.59259 21.38334  L92.79835 21.02695  L92.59259 20.67057  L93.00412 20.67057  L93.20988 20.31418  L93.00412 19.95779  L92.59259 19.95779  L92.79835 19.60140  L92.59259 19.24501  L92.18107 19.24501  L91.97531 19.60140  L91.76955 19.24501  L91.35802 19.24501  L91.15226 19.60140  L91.35802 19.95779  L90.94650 19.95779  L90.74074 20.31418  L90.53498 19.95779  L90.12346 19.95779  L90.32922 19.60140  L90.12346 19.24501  L89.71193 19.24501  L89.50617 19.60140  L89.30041 19.24501  L88.88889 19.24501  L88.68313 19.60140  L88.88889 19.95779  L88.47737 19.95779  L88.27160 20.31418  L88.47737 20.67057  L88.88889 20.67057  L88.68313 21.02695  L88.88889 21.38334  L88.47737 21.38334  L88.27160 21.73973  L88.06584 21.38334  L87.65432 21.38334  L87.44856 21.73973  L87.65432 22.09612  L87.24280 22.09612  L87.03704 22.45251  L87.24280 22.80890  L87.65432 22.80890  L87.44856 23.16529  L87.65432 23.52168  L88.06584 23.52168  L88.27160 23.16529  L88.47737 23.52168  L88.88889 23.52168  L88.68313 23.87807  L88.88889 24.23446  L88.47737 24.23446  L88.27160 24.59084  L88.47737 24.94723  L88.88889 24.94723  L88.68313 25.30362  L88.88889 25.66001  L88.47737 25.66001  L88.27160 26.01640  L88.06584 25.66001  L87.65432 25.66001  L87.44856 26.01640  L87.65432 26.37279  L87.24280 26.37279  L87.03704 26.72918  L86.83128 26.37279  L86.41975 26.37279  L86.62551 26.01640  L86.41975 25.66001  L86.00823 25.66001  L85.80247 26.01640  L85.59671 25.66001  L85.18519 25.66001  L84.97942 26.01640  L85.18519 26.37279  L84.77366 26.37279  L84.56790 26.72918  L84.77366 27.08557  L85.18519 27.08557  L84.97942 27.44196  L85.18519 27.79835  L84.77366 27.79835  L84.56790 28.15474  L84.36214 27.79835  L83.95062 27.79835  L83.74486 28.15474  L83.95062 28.51112  L83.53909 28.51112  L83.33333 28.86751  L83.53909 29.22390  L83.95062 29.22390  L83.74486 29.58029  L83.95062 29.93668  L84.36214 29.93668  L84.56790 29.58029  L84.77366 29.93668  L85.18519 29.93668  L84.97942 30.29307  L85.18519 30.64946  L84.77366 30.64946  L84.56790 31.00585  L84.77366 31.36224  L85.18519 31.36224  L84.97942 31.71863  L85.18519 32.07501  L85.59671 32.07501  L85.80247 31.71863  L86.00823 32.07501  L86.41975 32.07501  L86.62551 31.71863  L86.41975 31.36224  L86.83128 31.36224  L87.03704 31.00585  L87.24280 31.36224  L87.65432 31.36224  L87.44856 31.71863  L87.65432 32.07501  L88.06584 32.07501  L88.27160 31.71863  L88.47737 32.07501  L88.88889 32.07501  L88.68313 32.43140  L88.88889 32.78779  L88.47737 32.78779  L88.27160 33.14418  L88.47737 33.50057  L88.88889 33.50057  L88.68313 33.85696  L88.88889 34.21335  L88.47737 34.21335  L88.27160 34.56974  L88.06584 34.21335  L87.65432 34.21335  L87.44856 34.56974  L87.65432 34.92613  L87.24280 34.92613  L87.03704 35.28252  L87.24280 35.63891  L87.65432 35.63891  L87.44856 35.99529  L87.65432 36.35168  L88.06584 36.35168  L88.27160 35.99529  L88.47737 36.35168  L88.88889 36.35168  L88.68313 36.70807  L88.88889 37.06446  L88.47737 37.06446  L88.27160 37.42085  L88.47737 37.77724  L88.88889 37.77724  L88.68313 38.13363  L88.88889 38.49002  L89.30041 38.49002  L89.50617 38.13363  L89.71193 38.49002  L90.12346 38.49002  L90.32922 38.13363  L90.12346 37.77724  L90.53498 37.77724  L90.74074 37.42085  L90.94650 37.77724  L91.35802 37.77724  L91.15226 38.13363  L91.35802 38.49002  L91.76955 38.49002  L91.97531 38.13363  L92.18107 38.49002  L92.59259 38.49002  L92.79835 38.13363  L92.59259 37.77724  L93.00412 37.77724  L93.20988 37.42085  L93.00412 37.06446  L92.59259 37.06446  L92.79835 36.70807  L92.59259 36.35168  L93.00412 36.35168  L93.20988 35.99529  L93.41564 36.35168  L93.82716 36.35168  L94.03292 35.99529  L93.82716 35.63891  L94.23868 35.63891  L94.44444 35.28252  L94.65021 35.63891  L95.06173 35.63891  L94.85597 35.99529  L95.06173 36.35168  L95.47325 36.35168  L95.67901 35.99529  L95.88477 36.35168  L96.29630 36.35168  L96.09053 36.70807  L96.29630 37.06446  L95.88477 37.06446  L95.67901 37.42085  L95.88477 37.77724  L96.29630 37.77724  L96.09053 38.13363  L96.29630 38.49002  L96.70782 38.49002  L96.91358 38.13363  L97.11934 38.49002  L97.53086 38.49002  L97.73663 38.13363  L97.53086 37.77724  L97.94239 37.77724  L98.14815 37.42085  L98.35391 37.77724  L98.76543 37.77724  L98.55967 38.13363  L98.76543 38.49002  L99.17695 38.49002  L99.38272 38.13363  L99.58848 38.49002  L100.00000 38.49002  L99.79424 38.84641  L100.00000 39.20280  L99.58848 39.20280  L99.38272 39.55919  L99.58848 39.91557  L100.00000 39.91557  L99.79424 40.27196  L100.00000 40.62835  L99.58848 40.62835  L99.38272 40.98474  L99.17695 40.62835  L98.76543 40.62835  L98.55967 40.98474  L98.76543 41.34113  L98.35391 41.34113  L98.14815 41.69752  L98.35391 42.05391  L98.76543 42.05391  L98.55967 42.41030  L98.76543 42.76669  L99.17695 42.76669  L99.38272 42.41030  L99.58848 42.76669  L100.00000 42.76669  L99.79424 43.12308  L100.00000 43.47946  L99.58848 43.47946  L99.38272 43.83585  L99.58848 44.19224  L100.00000 44.19224  L99.79424 44.54863  L100.00000 44.90502  L99.58848 44.90502  L99.38272 45.26141  L99.17695 44.90502  L98.76543 44.90502  L98.55967 45.26141  L98.76543 45.61780  L98.35391 45.61780  L98.14815 45.97419  L97.94239 45.61780  L97.53086 45.61780  L97.73663 45.26141  L97.53086 44.90502  L97.11934 44.90502  L96.91358 45.26141  L96.70782 44.90502  L96.29630 44.90502  L96.09053 45.26141  L96.29630 45.61780  L95.88477 45.61780  L95.67901 45.97419  L95.88477 46.33058  L96.29630 46.33058  L96.09053 46.68697  L96.29630 47.04336  L95.88477 47.04336  L95.67901 47.39974  L95.47325 47.04336  L95.06173 47.04336  L94.85597 47.39974  L95.06173 47.75613  L94.65021 47.75613  L94.44444 48.11252  L94.65021 48.46891  L95.06173 48.46891  L94.85597 48.82530  L95.06173 49.18169  L95.47325 49.18169  L95.67901 48.82530  L95.88477 49.18169  L96.29630 49.18169  L96.09053 49.53808  L96.29630 49.89447  L95.88477 49.89447  L95.67901 50.25086  L95.88477 50.60725  L96.29630 50.60725  L96.09053 50.96363  L96.29630 51.32002  L96.70782 51.32002  L96.91358 50.96363  L97.11934 51.32002  L97.53086 51.32002  L97.73663 50.96363  L97.53086 50.60725  L97.94239 50.60725  L98.14815 50.25086  L98.35391 50.60725  L98.76543 50.60725  L98.55967 50.96363  L98.76543 51.32002  L99.17695 51.32002  L99.38272 50.96363  L99.58848 51.32002  L100.00000 51.32002  L99.79424 51.67641  L100.00000 52.03280  L99.58848 52.03280  L99.38272 52.38919  L99.58848 52.74558  L100.00000 52.74558  L99.79424 53.10197  L100.00000 53.45836  L99.58848 53.45836  L99.38272 53.81475  L99.17695 53.45836  L98.76543 53.45836  L98.55967 53.81475  L98.76543 54.17114  L98.35391 54.17114  L98.14815 54.52753  L98.35391 54.88391  L98.76543 54.88391  L98.55967 55.24030  L98.76543 55.59669  L99.17695 55.59669  L99.38272 55.24030  L99.58848 55.59669  L100.00000 55.59669  L99.79424 55.95308  L100.00000 56.30947  L99.58848 56.30947  L99.38272 56.66586  L99.58848 57.02225  L100.00000 57.02225  L99.79424 57.37864  L100.00000 57.73503  L99.58848 57.73503  L99.38272 58.09142  L99.17695 57.73503  L98.76543 57.73503  L98.55967 58.09142  L98.76543 58.44781  L98.35391 58.44781  L98.14815 58.80419  L97.94239 58.44781  L97.53086 58.44781  L97.73663 58.09142  L97.53086 57.73503  L97.11934 57.73503  L96.91358 58.09142  L96.70782 57.73503  L96.29630 57.73503  L96.09053 58.09142  L96.29630 58.44781  L95.88477 58.44781  L95.67901 58.80419  L95.88477 59.16058  L96.29630 59.16058  L96.09053 59.51697  L96.29630 59.87336  L95.88477 59.87336  L95.67901 60.22975  L95.47325 59.87336  L95.06173 59.87336  L94.85597 60.22975  L95.06173 60.58614  L94.65021 60.58614  L94.44444 60.94253  L94.23868 60.58614  L93.82716 60.58614  L94.03292 60.22975  L93.82716 59.87336  L93.41564 59.87336  L93.20988 60.22975  L93.00412 59.87336  L92.59259 59.87336  L92.79835 59.51697  L92.59259 59.16058  L93.00412 59.16058  L93.20988 58.80419  L93.00412 58.44781  L92.59259 58.44781  L92.79835 58.09142  L92.59259 57.73503  L92.18107 57.73503  L91.97531 58.09142  L91.76955 57.73503  L91.35802 57.73503  L91.15226 58.09142  L91.35802 58.44781  L90.94650 58.44781  L90.74074 58.80419  L90.53498 58.44781  L90.12346 58.44781  L90.32922 58.09142  L90.12346 57.73503  L89.71193 57.73503  L89.50617 58.09142  L89.30041 57.73503  L88.88889 57.73503  L88.68313 58.09142  L88.88889 58.44781  L88.47737 58.44781  L88.27160 58.80419  L88.47737 59.16058  L88.88889 59.16058  L88.68313 59.51697  L88.88889 59.87336  L88.47737 59.87336  L88.27160 60.22975  L88.06584 59.87336  L87.65432 59.87336  L87.44856 60.22975  L87.65432 60.58614  L87.24280 60.58614  L87.03704 60.94253  L87.24280 61.29892  L87.65432 61.29892  L87.44856 61.65531  L87.65432 62.01170  L88.06584 62.01170  L88.27160 61.65531  L88.47737 62.01170  L88.88889 62.01170  L88.68313 62.36808  L88.88889 62.72447  L88.47737 62.72447  L88.27160 63.08086  L88.47737 63.43725  L88.88889 63.43725  L88.68313 63.79364  L88.88889 64.15003  L88.47737 64.15003  L88.27160 64.50642  L88.06584 64.15003  L87.65432 64.15003  L87.44856 64.50642  L87.65432 64.86281  L87.24280 64.86281  L87.03704 65.21920  L86.83128 64.86281  L86.41975 64.86281  L86.62551 64.50642  L86.41975 64.15003  L86.00823 64.15003  L85.80247 64.50642  L85.59671 64.15003  L85.18519 64.15003  L84.97942 64.50642  L85.18519 64.86281  L84.77366 64.86281  L84.56790 65.21920  L84.77366 65.57559  L85.18519 65.57559  L84.97942 65.93198  L85.18519 66.28836  L84.77366 66.28836  L84.56790 66.64475  L84.36214 66.28836  L83.95062 66.28836  L83.74486 66.64475  L83.95062 67.00114  L83.53909 67.00114  L83.33333 67.35753  L83.12757 67.00114  L82.71605 67.00114  L82.92181 66.64475  L82.71605 66.28836  L82.30453 66.28836  L82.09877 66.64475  L81.89300 66.28836  L81.48148 66.28836  L81.68724 65.93198  L81.48148 65.57559  L81.89300 65.57559  L82.09877 65.21920  L81.89300 64.86281  L81.48148 64.86281  L81.68724 64.50642  L81.48148 64.15003  L81.06996 64.15003  L80.86420 64.50642  L80.65844 64.15003  L80.24691 64.15003  L80.04115 64.50642  L80.24691 64.86281  L79.83539 64.86281  L79.62963 65.21920  L79.42387 64.86281  L79.01235 64.86281  L79.21811 64.50642  L79.01235 64.15003  L78.60082 64.15003  L78.39506 64.50642  L78.18930 64.15003  L77.77778 64.15003  L77.98354 63.79364  L77.77778 63.43725  L78.18930 63.43725  L78.39506 63.08086  L78.18930 62.72447  L77.77778 62.72447  L77.98354 62.36808  L77.77778 62.01170  L78.18930 62.01170  L78.39506 61.65531  L78.60082 62.01170  L79.01235 62.01170  L79.21811 61.65531  L79.01235 61.29892  L79.42387 61.29892  L79.62963 60.94253  L79.42387 60.58614  L79.01235 60.58614  L79.21811 60.22975  L79.01235 59.87336  L78.60082 59.87336  L78.39506 60.22975  L78.18930 59.87336  L77.77778 59.87336  L77.98354 59.51697  L77.77778 59.16058  L78.18930 59.16058  L78.39506 58.80419  L78.18930 58.44781  L77.77778 58.44781  L77.98354 58.09142  L77.77778 57.73503  L77.36626 57.73503  L77.16049 58.09142  L76.95473 57.73503  L76.54321 57.73503  L76.33745 58.09142  L76.54321 58.44781  L76.13169 58.44781  L75.92593 58.80419  L75.72016 58.44781  L75.30864 58.44781  L75.51440 58.09142  L75.30864 57.73503  L74.89712 57.73503  L74.69136 58.09142  L74.48560 57.73503  L74.07407 57.73503  L73.86831 58.09142  L74.07407 58.44781  L73.66255 58.44781  L73.45679 58.80419  L73.66255 59.16058  L74.07407 59.16058  L73.86831 59.51697  L74.07407 59.87336  L73.66255 59.87336  L73.45679 60.22975  L73.25103 59.87336  L72.83951 59.87336  L72.63374 60.22975  L72.83951 60.58614  L72.42798 60.58614  L72.22222 60.94253  L72.01646 60.58614  L71.60494 60.58614  L71.81070 60.22975  L71.60494 59.87336  L71.19342 59.87336  L70.98765 60.22975  L70.78189 59.87336  L70.37037 59.87336  L70.57613 59.51697  L70.37037 59.16058  L70.78189 59.16058  L70.98765 58.80419  L70.78189 58.44781  L70.37037 58.44781  L70.57613 58.09142  L70.37037 57.73503  L69.95885 57.73503  L69.75309 58.09142  L69.54733 57.73503  L69.13580 57.73503  L68.93004 58.09142  L69.13580 58.44781  L68.72428 58.44781  L68.51852 58.80419  L68.31276 58.44781  L67.90123 58.44781  L68.10700 58.09142  L67.90123 57.73503  L67.48971 57.73503  L67.28395 58.09142  L67.07819 57.73503  L66.66667 57.73503  L66.46091 58.09142  L66.66667 58.44781  L66.25514 58.44781  L66.04938 58.80419  L66.25514 59.16058  L66.66667 59.16058  L66.46091 59.51697  L66.66667 59.87336  L66.25514 59.87336  L66.04938 60.22975  L65.84362 59.87336  L65.43210 59.87336  L65.22634 60.22975  L65.43210 60.58614  L65.02058 60.58614  L64.81481 60.94253  L65.02058 61.29892  L65.43210 61.29892  L65.22634 61.65531  L65.43210 62.01170  L65.84362 62.01170  L66.04938 61.65531  L66.25514 62.01170  L66.66667 62.01170  L66.46091 62.36808  L66.66667 62.72447  L66.25514 62.72447  L66.04938 63.08086  L66.25514 63.43725  L66.66667 63.43725  L66.46091 63.79364  L66.66667 64.15003  L66.25514 64.15003  L66.04938 64.50642  L65.84362 64.15003  L65.43210 64.15003  L65.22634 64.50642  L65.43210 64.86281  L65.02058 64.86281  L64.81481 65.21920  L64.60905 64.86281  L64.19753 64.86281  L64.40329 64.50642  L64.19753 64.15003  L63.78601 64.15003  L63.58025 64.50642  L63.37449 64.15003  L62.96296 64.15003  L62.75720 64.50642  L62.96296 64.86281  L62.55144 64.86281  L62.34568 65.21920  L62.55144 65.57559  L62.96296 65.57559  L62.75720 65.93198  L62.96296 66.28836  L62.55144 66.28836  L62.34568 66.64475  L62.13992 66.28836  L61.72840 66.28836  L61.52263 66.64475  L61.72840 67.00114  L61.31687 67.00114  L61.11111 67.35753  L61.31687 67.71392  L61.72840 67.71392  L61.52263 68.07031  L61.72840 68.42670  L62.13992 68.42670  L62.34568 68.07031  L62.55144 68.42670  L62.96296 68.42670  L62.75720 68.78309  L62.96296 69.13948  L62.55144 69.13948  L62.34568 69.49587  L62.55144 69.85225  L62.96296 69.85225  L62.75720 70.20864  L62.96296 70.56503  L63.37449 70.56503  L63.58025 70.20864  L63.78601 70.56503  L64.19753 70.56503  L64.40329 70.20864  L64.19753 69.85225  L64.60905 69.85225  L64.81481 69.49587  L65.02058 69.85225  L65.43210 69.85225  L65.22634 70.20864  L65.43210 70.56503  L65.84362 70.56503  L66.04938 70.20864  L66.25514 70.56503  L66.66667 70.56503  L66.46091 70.92142  L66.66667 71.27781  L66.25514 71.27781  L66.04938 71.63420  L66.25514 71.99059  L66.66667 71.99059  L66.46091 72.34698  L66.66667 72.70337  L66.25514 72.70337  L66.04938 73.05976  L65.84362 72.70337  L65.43210 72.70337  L65.22634 73.05976  L65.43210 73.41615  L65.02058 73.41615  L64.81481 73.77253  L65.02058 74.12892  L65.43210 74.12892  L65.22634 74.48531  L65.43210 74.84170  L65.84362 74.84170  L66.04938 74.48531  L66.25514 74.84170  L66.66667 74.84170  L66.46091 75.19809  L66.66667 75.55448  L66.25514 75.55448  L66.04938 75.91087  L66.25514 76.26726  L66.66667 76.26726  L66.46091 76.62365  L66.66667 76.98004  L66.25514 76.98004  L66.04938 77.33642  L65.84362 76.98004  L65.43210 76.98004  L65.22634 77.33642  L65.43210 77.69281  L65.02058 77.69281  L64.81481 78.04920  L64.60905 77.69281  L64.19753 77.69281  L64.40329 77.33642  L64.19753 76.98004  L63.78601 76.98004  L63.58025 77.33642  L63.37449 76.98004  L62.96296 76.98004  L62.75720 77.33642  L62.96296 77.69281  L62.55144 77.69281  L62.34568 78.04920  L62.55144 78.40559  L62.96296 78.40559  L62.75720 78.76198  L62.96296 79.11837  L62.55144 79.11837  L62.34568 79.47476  L62.13992 79.11837  L61.72840 79.11837  L61.52263 79.47476  L61.72840 79.83115  L61.31687 79.83115  L61.11111 80.18754  L60.90535 79.83115  L60.49383 79.83115  L60.69959 79.47476  L60.49383 79.11837  L60.08230 79.11837  L59.87654 79.47476  L59.67078 79.11837  L59.25926 79.11837  L59.46502 78.76198  L59.25926 78.40559  L59.67078 78.40559  L59.87654 78.04920  L59.67078 77.69281  L59.25926 77.69281  L59.46502 77.33642  L59.25926 76.98004  L58.84774 76.98004  L58.64198 77.33642  L58.43621 76.98004  L58.02469 76.98004  L57.81893 77.33642  L58.02469 77.69281  L57.61317 77.69281  L57.40741 78.04920  L57.20165 77.69281  L56.79012 77.69281  L56.99588 77.33642  L56.79012 76.98004  L56.37860 76.98004  L56.17284 77.33642  L55.96708 76.98004  L55.55556 76.98004  L55.34979 77.33642  L55.55556 77.69281  L55.14403 77.69281  L54.93827 78.04920  L55.14403 78.40559  L55.55556 78.40559  L55.34979 78.76198  L55.55556 79.11837  L55.14403 79.11837  L54.93827 79.47476  L54.73251 79.11837  L54.32099 79.11837  L54.11523 79.47476  L54.32099 79.83115  L53.90947 79.83115  L53.70370 80.18754  L53.90947 80.54393  L54.32099 80.54393  L54.11523 80.90032  L54.32099 81.25670  L54.73251 81.25670  L54.93827 80.90032  L55.14403 81.25670  L55.55556 81.25670  L55.34979 81.61309  L55.55556 81.96948  L55.14403 81.96948  L54.93827 82.32587  L55.14403 82.68226  L55.55556 82.68226  L55.34979 83.03865  L55.55556 83.39504  L55.14403 83.39504  L54.93827 83.75143  L54.73251 83.39504  L54.32099 83.39504  L54.11523 83.75143  L54.32099 84.10782  L53.90947 84.10782  L53.70370 84.46421  L53.49794 84.10782  L53.08642 84.10782  L53.29218 83.75143  L53.08642 83.39504  L52.67490 83.39504  L52.46914 83.75143  L52.26337 83.39504  L51.85185 83.39504  L51.64609 83.75143  L51.85185 84.10782  L51.44033 84.10782  L51.23457 84.46421  L51.44033 84.82060  L51.85185 84.82060  L51.64609 85.17698  L51.85185 85.53337  L51.44033 85.53337  L51.23457 85.88976  L51.02881 85.53337  L50.61728 85.53337  L50.41152 85.88976  L50.61728 86.24615  L50.20576 86.24615  L50.00000 86.60254  L49.79424 86.24615  L49.38272 86.24615  L49.58848 85.88976  L49.38272 85.53337  L48.97119 85.53337  L48.76543 85.88976  L48.55967 85.53337  L48.14815 85.53337  L48.35391 85.17698  L48.14815 84.82060  L48.55967 84.82060  L48.76543 84.46421  L48.55967 84.10782  L48.14815 84.10782  L48.35391 83.75143  L48.14815 83.39504  L47.73663 83.39504  L47.53086 83.75143  L47.32510 83.39504  L46.91358 83.39504  L46.70782 83.75143  L46.91358 84.10782  L46.50206 84.10782  L46.29630 84.46421  L46.09053 84.10782  L45.67901 84.10782  L45.88477 83.75143  L45.67901 83.39504  L45.26749 83.39504  L45.06173 83.75143  L44.85597 83.39504  L44.44444 83.39504  L44.65021 83.03865  L44.44444 82.68226  L44.85597 82.68226  L45.06173 82.32587  L44.85597 81.96948  L44.44444 81.96948  L44.65021 81.61309  L44.44444 81.25670  L44.85597 81.25670  L45.06173 80.90032  L45.26749 81.25670  L45.67901 81.25670  L45.88477 80.90032  L45.67901 80.54393  L46.09053 80.54393  L46.29630 80.18754  L46.09053 79.83115  L45.67901 79.83115  L45.88477 79.47476  L45.67901 79.11837  L45.26749 79.11837  L45.06173 79.47476  L44.85597 79.11837  L44.44444 79.11837  L44.65021 78.76198  L44.44444 78.40559  L44.85597 78.40559  L45.06173 78.04920  L44.85597 77.69281  L44.44444 77.69281  L44.65021 77.33642  L44.44444 76.98004  L44.03292 76.98004  L43.82716 77.33642  L43.62140 76.98004  L43.20988 76.98004  L43.00412 77.33642  L43.20988 77.69281  L42.79835 77.69281  L42.59259 78.04920  L42.38683 77.69281  L41.97531 77.69281  L42.18107 77.33642  L41.97531 76.98004  L41.56379 76.98004  L41.35802 77.33642  L41.15226 76.98004  L40.74074 76.98004  L40.53498 77.33642  L40.74074 77.69281  L40.32922 77.69281  L40.12346 78.04920  L40.32922 78.40559  L40.74074 78.40559  L40.53498 78.76198  L40.74074 79.11837  L40.32922 79.11837  L40.12346 79.47476  L39.91770 79.11837  L39.50617 79.11837  L39.30041 79.47476  L39.50617 79.83115  L39.09465 79.83115  L38.88889 80.18754  L38.68313 79.83115  L38.27160 79.83115  L38.47737 79.47476  L38.27160 79.11837  L37.86008 79.11837  L37.65432 79.47476  L37.44856 79.11837  L37.03704 79.11837  L37.24280 78.76198  L37.03704 78.40559  L37.44856 78.40559  L37.65432 78.04920  L37.44856 77.69281  L37.03704 77.69281  L37.24280 77.33642  L37.03704 76.98004  L36.62551 76.98004  L36.41975 77.33642  L36.21399 76.98004  L35.80247 76.98004  L35.59671 77.33642  L35.80247 77.69281  L35.39095 77.69281  L35.18519 78.04920  L34.97942 77.69281  L34.56790 77.69281  L34.77366 77.33642  L34.56790 76.98004  L34.15638 76.98004  L33.95062 77.33642  L33.74486 76.98004  L33.33333 76.98004  L33.53909 76.62365  L33.33333 76.26726  L33.74486 76.26726  L33.95062 75.91087  L33.74486 75.55448  L33.33333 75.55448  L33.53909 75.19809  L33.33333 74.84170  L33.74486 74.84170  L33.95062 74.48531  L34.15638 74.84170  L34.56790 74.84170  L34.77366 74.48531  L34.56790 74.12892  L34.97942 74.12892  L35.18519 73.77253  L34.97942 73.41615  L34.56790 73.41615  L34.77366 73.05976  L34.56790 72.70337  L34.15638 72.70337  L33.95062 73.05976  L33.74486 72.70337  L33.33333 72.70337  L33.53909 72.34698  L33.33333 71.99059  L33.74486 71.99059  L33.95062 71.63420  L33.74486 71.27781  L33.33333 71.27781  L33.53909 70.92142  L33.33333 70.56503  L33.74486 70.56503  L33.95062 70.20864  L34.15638 70.56503  L34.56790 70.56503  L34.77366 70.20864  L34.56790 69.85225  L34.97942 69.85225  L35.18519 69.49587  L35.39095 69.85225  L35.80247 69.85225  L35.59671 70.20864  L35.80247 70.56503  L36.21399 70.56503  L36.41975 70.20864  L36.62551 70.56503  L37.03704 70.56503  L37.24280 70.20864  L37.03704 69.85225  L37.44856 69.85225  L37.65432 69.49587  L37.44856 69.13948  L37.03704 69.13948  L37.24280 68.78309  L37.03704 68.42670  L37.44856 68.42670  L37.65432 68.07031  L37.86008 68.42670  L38.27160 68.42670  L38.47737 68.07031  L38.27160 67.71392  L38.68313 67.71392  L38.88889 67.35753  L38.68313 67.00114  L38.27160 67.00114  L38.47737 66.64475  L38.27160 66.28836  L37.86008 66.28836  L37.65432 66.64475  L37.44856 66.28836  L37.03704 66.28836  L37.24280 65.93198  L37.03704 65.57559  L37.44856 65.57559  L37.65432 65.21920  L37.44856 64.86281  L37.03704 64.86281  L37.24280 64.50642  L37.03704 64.15003  L36.62551 64.15003  L36.41975 64.50642  L36.21399 64.15003  L35.80247 64.15003  L35.59671 64.50642  L35.80247 64.86281  L35.39095 64.86281  L35.18519 65.21920  L34.97942 64.86281  L34.56790 64.86281  L34.77366 64.50642  L34.56790 64.15003  L34.15638 64.15003  L33.95062 64.50642  L33.74486 64.15003  L33.33333 64.15003  L33.53909 63.79364  L33.33333 63.43725  L33.74486 63.43725  L33.95062 63.08086  L33.74486 62.72447  L33.33333 62.72447  L33.53909 62.36808  L33.33333 62.01170  L33.74486 62.01170  L33.95062 61.65531  L34.15638 62.01170  L34.56790 62.01170  L34.77366 61.65531  L34.56790 61.29892  L34.97942 61.29892  L35.18519 60.94253  L34.97942 60.58614  L34.56790 60.58614  L34.77366 60.22975  L34.56790 59.87336  L34.15638 59.87336  L33.95062 60.22975  L33.74486 59.87336  L33.33333 59.87336  L33.53909 59.51697  L33.33333 59.16058  L33.74486 59.16058  L33.95062 58.80419  L33.74486 58.44781  L33.33333 58.44781  L33.53909 58.09142  L33.33333 57.73503  L32.92181 57.73503  L32.71605 58.09142  L32.51029 57.73503  L32.09877 57.73503  L31.89300 58.09142  L32.09877 58.44781  L31.68724 58.44781  L31.48148 58.80419  L31.27572 58.44781  L30.86420 58.44781  L31.06996 58.09142  L30.86420 57.73503  L30.45267 57.73503  L30.24691 58.09142  L30.04115 57.73503  L29.62963 57.73503  L29.42387 58.09142  L29.62963 58.44781  L29.21811 58.44781  L29.01235 58.80419  L29.21811 59.16058  L29.62963 59.16058  L29.42387 59.51697  L29.62963 59.87336  L29.21811 59.87336  L29.01235 60.22975  L28.80658 59.87336  L28.39506 59.87336  L28.18930 60.22975  L28.39506 60.58614  L27.98354 60.58614  L27.77778 60.94253  L27.57202 60.58614  L27.16049 60.58614  L27.36626 60.22975  L27.16049 59.87336  L26.74897 59.87336  L26.54321 60.22975  L26.33745 59.87336  L25.92593 59.87336  L26.13169 59.51697  L25.92593 59.16058  L26.33745 59.16058  L26.54321 58.80419  L26.33745 58.44781  L25.92593 58.44781  L26.13169 58.09142  L25.92593 57.73503  L25.51440 57.73503  L25.30864 58.09142  L25.10288 57.73503  L24.69136 57.73503  L24.48560 58.09142  L24.69136 58.44781  L24.27984 58.44781  L24.07407 58.80419  L23.86831 58.44781  L23.45679 58.44781  L23.66255 58.09142  L23.45679 57.73503  L23.04527 57.73503  L22.83951 58.09142  L22.63374 57.73503  L22.22222 57.73503  L22.01646 58.09142  L22.22222 58.44781  L21.81070 58.44781  L21.60494 58.80419  L21.81070 59.16058  L22.22222 59.16058  L22.01646 59.51697  L22.22222 59.87336  L21.81070 59.87336  L21.60494 60.22975  L21.39918 59.87336  L20.98765 59.87336  L20.78189 60.22975  L20.98765 60.58614  L20.57613 60.58614  L20.37037 60.94253  L20.57613 61.29892  L20.98765 61.29892  L20.78189 61.65531  L20.98765 62.01170  L21.39918 62.01170  L21.60494 61.65531  L21.81070 62.01170  L22.22222 62.01170  L22.01646 62.36808  L22.22222 62.72447  L21.81070 62.72447  L21.60494 63.08086  L21.81070 63.43725  L22.22222 63.43725  L22.01646 63.79364  L22.22222 64.15003  L21.81070 64.15003  L21.60494 64.50642  L21.39918 64.15003  L20.98765 64.15003  L20.78189 64.50642  L20.98765 64.86281  L20.57613 64.86281  L20.37037 65.21920  L20.16461 64.86281  L19.75309 64.86281  L19.95885 64.50642  L19.75309 64.15003  L19.34156 64.15003  L19.13580 64.50642  L18.93004 64.15003  L18.51852 64.15003  L18.31276 64.50642  L18.51852 64.86281  L18.10700 64.86281  L17.90123 65.21920  L18.10700 65.57559  L18.51852 65.57559  L18.31276 65.93198  L18.51852 66.28836  L18.10700 66.28836  L17.90123 66.64475  L17.69547 66.28836  L17.28395 66.28836  L17.07819 66.64475  L17.28395 67.00114  L16.87243 67.00114  L16.66667 67.35753  L16.46091 67.00114  L16.04938 67.00114  L16.25514 66.64475  L16.04938 66.28836  L15.63786 66.28836  L15.43210 66.64475  L15.22634 66.28836  L14.81481 66.28836  L15.02058 65.93198  L14.81481 65.57559  L15.22634 65.57559  L15.43210 65.21920  L15.22634 64.86281  L14.81481 64.86281  L15.02058 64.50642  L14.81481 64.15003  L14.40329 64.15003  L14.19753 64.50642  L13.99177 64.15003  L13.58025 64.15003  L13.37449 64.50642  L13.58025 64.86281  L13.16872 64.86281  L12.96296 65.21920  L12.75720 64.86281  L12.34568 64.86281  L12.55144 64.50642  L12.34568 64.15003  L11.93416 64.15003  L11.72840 64.50642  L11.52263 64.15003  L11.11111 64.15003  L11.31687 63.79364  L11.11111 63.43725  L11.52263 63.43725  L11.72840 63.08086  L11.52263 62.72447  L11.11111 62.72447  L11.31687 62.36808  L11.11111 62.01170  L11.52263 62.01170  L11.72840 61.65531  L11.93416 62.01170  L12.34568 62.01170  L12.55144 61.65531  L12.34568 61.29892  L12.75720 61.29892  L12.96296 60.94253  L12.75720 60.58614  L12.34568 60.58614  L12.55144 60.22975  L12.34568 59.87336  L11.93416 59.87336  L11.72840 60.22975  L11.52263 59.87336  L11.11111 59.87336  L11.31687 59.51697  L11.11111 59.16058  L11.52263 59.16058  L11.72840 58.80419  L11.52263 58.44781  L11.11111 58.44781  L11.31687 58.09142  L11.11111 57.73503  L10.69959 57.73503  L10.49383 58.09142  L10.28807 57.73503  L9.87654 57.73503  L9.67078 58.09142  L9.87654 58.44781  L9.46502 58.44781  L9.25926 58.80419  L9.05350 58.44781  L8.64198 58.44781  L8.84774 58.09142  L8.64198 57.73503  L8.23045 57.73503  L8.02469 58.09142  L7.81893 57.73503  L7.40741 57.73503  L7.20165 58.09142  L7.40741 58.44781  L6.99588 58.44781  L6.79012 58.80419  L6.99588 59.16058  L7.40741 59.16058  L7.20165 59.51697  L7.40741 59.87336  L6.99588 59.87336  L6.79012 60.22975  L6.58436 59.87336  L6.17284 59.87336  L5.96708 60.22975  L6.17284 60.58614  L5.76132 60.58614  L5.55556 60.94253  L5.34979 60.58614  L4.93827 60.58614  L5.14403 60.22975  L4.93827 59.87336  L4.52675 59.87336  L4.32099 60.22975  L4.11523 59.87336  L3.70370 59.87336  L3.90947 59.51697  L3.70370 59.16058  L4.11523 59.16058  L4.32099 58.80419  L4.11523 58.44781  L3.70370 58.44781  L3.90947 58.09142  L3.70370 57.73503  L3.29218 57.73503  L3.08642 58.09142  L2.88066 57.73503  L2.46914 57.73503  L2.26337 58.09142  L2.46914 58.44781  L2.05761 58.44781  L1.85185 58.80419  L1.64609 58.44781  L1.23457 58.44781  L1.44033 58.09142  L1.23457 57.73503  L0.82305 57.73503  L0.61728 58.09142  L0.41152 57.73503  L-0.00000 57.73503  L0.20576 57.37864  L-0.00000 57.02225  L0.41152 57.02225  L0.61728 56.66586  L0.41152 56.30947  L-0.00000 56.30947  L0.20576 55.95308  L-0.00000 55.59669  L0.41152 55.59669  L0.61728 55.24030  L0.82305 55.59669  L1.23457 55.59669  L1.44033 55.24030  L1.23457 54.88391  L1.64609 54.88391  L1.85185 54.52753  L1.64609 54.17114  L1.23457 54.17114  L1.44033 53.81475  L1.23457 53.45836  L0.82305 53.45836  L0.61728 53.81475  L0.41152 53.45836  L-0.00000 53.45836  L0.20576 53.10197  L-0.00000 52.74558  L0.41152 52.74558  L0.61728 52.38919  L0.41152 52.03280  L-0.00000 52.03280  L0.20576 51.67641  L-0.00000 51.32002  L0.41152 51.32002  L0.61728 50.96363  L0.82305 51.32002  L1.23457 51.32002  L1.44033 50.96363  L1.23457 50.60725  L1.64609 50.60725  L1.85185 50.25086  L2.05761 50.60725  L2.46914 50.60725  L2.26337 50.96363  L2.46914 51.32002  L2.88066 51.32002  L3.08642 50.96363  L3.29218 51.32002  L3.70370 51.32002  L3.90947 50.96363  L3.70370 50.60725  L4.11523 50.60725  L4.32099 50.25086  L4.11523 49.89447  L3.70370 49.89447  L3.90947 49.53808  L3.70370 49.18169  L4.11523 49.18169  L4.32099 48.82530  L4.52675 49.18169  L4.93827 49.18169  L5.14403 48.82530  L4.93827 48.46891  L5.34979 48.46891  L5.55556 48.11252  L5.34979 47.75613  L4.93827 47.75613  L5.14403 47.39974  L4.93827 47.04336  L4.52675 47.04336  L4.32099 47.39974  L4.11523 47.04336  L3.70370 47.04336  L3.90947 46.68697  L3.70370 46.33058  L4.11523 46.33058  L4.32099 45.97419  L4.11523 45.61780  L3.70370 45.61780  L3.90947 45.26141  L3.70370 44.90502  L3.29218 44.90502  L3.08642 45.26141  L2.88066 44.90502  L2.46914 44.90502  L2.26337 45.26141  L2.46914 45.61780  L2.05761 45.61780  L1.85185 45.97419  L1.64609 45.61780  L1.23457 45.61780  L1.44033 45.26141  L1.23457 44.90502  L0.82305 44.90502  L0.61728 45.26141  L0.41152 44.90502  L0.00000 44.90502  L0.20576 44.54863  L0.00000 44.19224  L0.41152 44.19224  L0.61728 43.83585  L0.41152 43.47946  L0.00000 43.47946  L0.20576 43.12308  L0.00000 42.76669  L0.41152 42.76669  L0.61728 42.41030  L0.82305 42.76669  L1.23457 42.76669  L1.44033 42.41030  L1.23457 42.05391  L1.64609 42.05391  L1.85185 41.69752  L1.64609 41.34113  L1.23457 41.34113  L1.44033 40.98474  L1.23457 40.62835  L0.82305 40.62835  L0.61728 40.98474  L0.41152 40.62835  L0.00000 40.62835  L0.20576 40.27196  L0.00000 39.91557  L0.41152 39.91557  L0.61728 39.55919  L0.41152 39.20280  L0.00000 39.20280  L0.20576 38.84641  L0.00000 38.49002  L0.41152 38.49002  L0.61728 38.13363  L0.82305 38.49002  L1.23457 38.49002  L1.44033 38.13363  L1.23457 37.77724  L1.64609 37.77724  L1.85185 37.42085  L2.05761 37.77724  L2.46914 37.77724  L2.26337 38.13363  L2.46914 38.49002  L2.88066 38.49002  L3.08642 38.13363  L3.29218 38.49002  L3.70370 38.49002  L3.90947 38.13363  L3.70370 37.77724  L4.11523 37.77724  L4.32099 37.42085  L4.11523 37.06446  L3.70370 37.06446  L3.90947 36.70807  L3.70370 36.35168  L4.11523 36.35168  L4.32099 35.99529  L4.52675 36.35168  L4.93827 36.35168  L5.14403 35.99529  L4.93827 35.63891  L5.34979 35.63891  L5.55556 35.28252  L5.76132 35.63891  L6.17284 35.63891  L5.96708 35.99529  L6.17284 36.35168  L6.58436 36.35168  L6.79012 35.99529  L6.99588 36.35168  L7.40741 36.35168  L7.20165 36.70807  L7.40741 37.06446  L6.99588 37.06446  L6.79012 37.42085  L6.99588 37.77724  L7.40741 37.77724  L7.20165 38.13363  L7.40741 38.49002  L7.81893 38.49002  L8.02469 38.13363  L8.23045 38.49002  L8.64198 38.49002  L8.84774 38.13363  L8.64198 37.77724  L9.05350 37.77724  L9.25926 37.42085  L9.46502 37.77724  L9.87654 37.77724  L9.67078 38.13363  L9.87654 38.49002  L10.28807 38.49002  L10.49383 38.13363  L10.69959 38.49002  L11.11111 38.49002  L11.31687 38.13363  L11.11111 37.77724  L11.52263 37.77724  L11.72840 37.42085  L11.52263 37.06446  L11.11111 37.06446  L11.31687 36.70807  L11.11111 36.35168  L11.52263 36.35168  L11.72840 35.99529  L11.93416 36.35168  L12.34568 36.35168  L12.55144 35.99529  L12.34568 35.63891  L12.75720 35.63891  L12.96296 35.28252  L12.75720 34.92613  L12.34568 34.92613  L12.55144 34.56974  L12.34568 34.21335  L11.93416 34.21335  L11.72840 34.56974  L11.52263 34.21335  L11.11111 34.21335  L11.31687 33.85696  L11.11111 33.50057  L11.52263 33.50057  L11.72840 33.14418  L11.52263 32.78779  L11.11111 32.78779  L11.31687 32.43140  L11.11111 32.07501  L11.52263 32.07501  L11.72840 31.71863  L11.93416 32.07501  L12.34568 32.07501  L12.55144 31.71863  L12.34568 31.36224  L12.75720 31.36224  L12.96296 31.00585  L13.16872 31.36224  L13.58025 31.36224  L13.37449 31.71863  L13.58025 32.07501  L13.99177 32.07501  L14.19753 31.71863  L14.40329 32.07501  L14.81481 32.07501  L15.02058 31.71863  L14.81481 31.36224  L15.22634 31.36224  L15.43210 31.00585  L15.22634 30.64946  L14.81481 30.64946  L15.02058 30.29307  L14.81481 29.93668  L15.22634 29.93668  L15.43210 29.58029  L15.63786 29.93668  L16.04938 29.93668  L16.25514 29.58029  L16.04938 29.22390  L16.46091 29.22390  L16.66667 28.86751  L16.46091 28.51112  L16.04938 28.51112  L16.25514 28.15474  L16.04938 27.79835  L15.63786 27.79835  L15.43210 28.15474  L15.22634 27.79835  L14.81481 27.79835  L15.02058 27.44196  L14.81481 27.08557  L15.22634 27.08557  L15.43210 26.72918  L15.22634 26.37279  L14.81481 26.37279  L15.02058 26.01640  L14.81481 25.66001  L14.40329 25.66001  L14.19753 26.01640  L13.99177 25.66001  L13.58025 25.66001  L13.37449 26.01640  L13.58025 26.37279  L13.16872 26.37279  L12.96296 26.72918  L12.75720 26.37279  L12.34568 26.37279  L12.55144 26.01640  L12.34568 25.66001  L11.93416 25.66001  L11.72840 26.01640  L11.52263 25.66001  L11.11111 25.66001  L11.31687 25.30362  L11.11111 24.94723  L11.52263 24.94723  L11.72840 24.59084  L11.52263 24.23446  L11.11111 24.23446  L11.31687 23.87807  L11.11111 23.52168  L11.52263 23.52168  L11.72840 23.16529  L11.93416 23.52168  L12.34568 23.52168  L12.55144 23.16529  L12.34568 22.80890  L12.75720 22.80890  L12.96296 22.45251  L12.75720 22.09612  L12.34568 22.09612  L12.55144 21.73973  L12.34568 21.38334  L11.93416 21.38334  L11.72840 21.73973  L11.52263 21.38334  L11.11111 21.38334  L11.31687 21.02695  L11.11111 20.67057  L11.52263 20.67057  L11.72840 20.31418  L11.52263 19.95779  L11.11111 19.95779  L11.31687 19.60140  L11.11111 19.24501  L10.69959 19.24501  L10.49383 19.60140  L10.28807 19.24501  L9.87654 19.24501  L9.67078 19.60140  L9.87654 19.95779  L9.46502 19.95779  L9.25926 20.31418  L9.05350 19.95779  L8.64198 19.95779  L8.84774 19.60140  L8.64198 19.24501  L8.23045 19.24501  L8.02469 19.60140  L7.81893 19.24501  L7.40741 19.24501  L7.20165 19.60140  L7.40741 19.95779  L6.99588 19.95779  L6.79012 20.31418  L6.99588 20.67057  L7.40741 20.67057  L7.20165 21.02695  L7.40741 21.38334  L6.99588 21.38334  L6.79012 21.73973  L6.58436 21.38334  L6.17284 21.38334  L5.96708 21.73973  L6.17284 22.09612  L5.76132 22.09612  L5.55556 22.45251  L5.34979 22.09612  L4.93827 22.09612  L5.14403 21.73973  L4.93827 21.38334  L4.52675 21.38334  L4.32099 21.73973  L4.11523 21.38334  L3.70370 21.38334  L3.90947 21.02695  L3.70370 20.67057  L4.11523 20.67057  L4.32099 20.31418  L4.11523 19.95779  L3.70370 19.95779  L3.90947 19.60140  L3.70370 19.24501  L3.29218 19.24501  L3.08642 19.60140  L2.88066 19.24501  L2.46914 19.24501  L2.26337 19.60140  L2.46914 19.95779  L2.05761 19.95779  L1.85185 20.31418  L1.64609 19.95779  L1.23457 19.95779  L1.44033 19.60140  L1.23457 19.24501  L0.82305 19.24501  L0.61728 19.60140  L0.41152 19.24501  L0.00000 19.24501  L0.20576 18.88862  L0.00000 18.53223  L0.41152 18.53223  L0.61728 18.17584  L0.41152 17.81945  L0.00000 17.81945  L0.20576 17.46306  L0.00000 17.10667  L0.41152 17.10667  L0.61728 16.75029  L0.82305 17.10667  L1.23457 17.10667  L1.44033 16.75029  L1.23457 16.39390  L1.64609 16.39390  L1.85185 16.03751  L1.64609 15.68112  L1.23457 15.68112  L1.44033 15.32473  L1.23457 14.96834  L0.82305 14.96834  L0.61728 15.32473  L0.41152 14.96834  L0.00000 14.96834  L0.20576 14.61195  L0.00000 14.25556  L0.41152 14.25556  L0.61728 13.89917  L0.41152 13.54278  L0.00000 13.54278  L0.20576 13.18640  L0.00000 12.83001  L0.41152 12.83001  L0.61728 12.47362  L0.82305 12.83001  L1.23457 12.83001  L1.44033 12.47362  L1.23457 12.11723  L1.64609 12.11723  L1.85185 11.76084  L2.05761 12.11723  L2.46914 12.11723  L2.26337 12.47362  L2.46914 12.83001  L2.88066 12.83001  L3.08642 12.47362  L3.29218 12.83001  L3.70370 12.83001  L3.90947 12.47362  L3.70370 12.11723  L4.11523 12.11723  L4.32099 11.76084  L4.11523 11.40445  L3.70370 11.40445  L3.90947 11.04806  L3.70370 10.69167  L4.11523 10.69167  L4.32099 10.33528  L4.52675 10.69167  L4.93827 10.69167  L5.14403 10.33528  L4.93827 9.97889  L5.34979 9.97889  L5.55556 9.62250  L5.34979 9.26612  L4.93827 9.26612  L5.14403 8.90973  L4.93827 8.55334  L4.52675 8.55334  L4.32099 8.90973  L4.11523 8.55334  L3.70370 8.55334  L3.90947 8.19695  L3.70370 7.84056  L4.11523 7.84056  L4.32099 7.48417  L4.11523 7.12778  L3.70370 7.12778  L3.90947 6.77139  L3.70370 6.41500  L3.29218 6.41500  L3.08642 6.77139  L2.88066 6.41500  L2.46914 6.41500  L2.26337 6.77139  L2.46914 7.12778  L2.05761 7.12778  L1.85185 7.48417  L1.64609 7.12778  L1.23457 7.12778  L1.44033 6.77139  L1.23457 6.41500  L0.82305 6.41500  L0.61728 6.77139  L0.41152 6.41500  L0.00000 6.41500  L0.20576 6.05861  L0.00000 5.70222  L0.41152 5.70222  L0.61728 5.34584  L0.41152 4.98945  L0.00000 4.98945  L0.20576 4.63306  L0.00000 4.27667  L0.41152 4.27667  L0.61728 3.92028  L0.82305 4.27667  L1.23457 4.27667  L1.44033 3.92028  L1.23457 3.56389  L1.64609 3.56389  L1.85185 3.20750  L1.64609 2.85111  L1.23457 2.85111  L1.44033 2.49472  L1.23457 2.13833  L0.82305 2.13833  L0.61728 2.49472  L0.41152 2.13833  L0.00000 2.13833  L0.20576 1.78195  L0.00000 1.42556  L0.41152 1.42556  L0.61728 1.06917  L0.41152 0.71278  L0.00000 0.71278  L0.20576 0.35639  L0.00000 -0.00000 " style="stroke-width: 1; fill: #ffffff; stroke: #000000"  /></svg>